<?xml version="1.0" encoding="UTF-8"?>
<!--Generator: Apple Native CoreSVG 341-->
<!DOCTYPE svg
PUBLIC "-//W3C//DTD SVG 1.1//EN"
"http://www.w3.org/Graphics/SVG/1.1/DTD/svg11.dtd">
<svg version="1.1" xmlns="http://www.w3.org/2000/svg" xmlns:xlink="http://www.w3.org/1999/xlink" viewBox="0 0 43.1578 37.2849">
    <g>
        <rect height="37.2849" opacity="0" width="43.1578" x="0" y="0"/>
        <path d="M16.3991 34.4659L26.4072 34.4659L26.4072 23.6628C26.4072 22.8239 25.8759 22.2746 25.0189 22.2746L17.7912 22.2746C16.9523 22.2746 16.3991 22.8239 16.3991 23.6628ZM1.97094 19.5319C2.56376 19.5319 3.10033 19.2164 3.55516 18.8354L20.6894 4.44988C20.9127 4.25652 21.1759 4.16687 21.4031 4.16687C21.6303 4.16687 21.8755 4.25652 22.0988 4.44988L39.2511 18.8354C39.7059 19.2164 40.2425 19.5319 40.8353 19.5319C42.0583 19.5319 42.8062 18.6877 42.8062 17.6968C42.8062 17.1743 42.557 16.6039 42.0684 16.193L23.9445 0.983491C23.1464 0.329149 22.2728 0 21.4031 0C20.5334 0 19.6418 0.329149 18.8618 0.983491L0.737837 16.193C0.249168 16.6039 0 17.1743 0 17.6968C0 18.6877 0.747945 19.5319 1.97094 19.5319ZM32.1464 8.85894L37.3988 13.2693L37.3988 5.00669C37.3988 4.16778 36.8494 3.63648 36.0105 3.63648L33.5386 3.63648C32.7177 3.63648 32.1464 4.16778 32.1464 5.00669ZM9.72156 37.263L33.0666 37.263C35.7877 37.263 37.3988 35.688 37.3988 33.0644L37.3988 13.8573L33.6393 11.3366L33.6393 31.9192C33.6393 32.9361 33.0719 33.5215 32.0911 33.5215L10.7152 33.5215C9.7343 33.5215 9.14894 32.9361 9.14894 31.9192L9.14894 11.3366L5.40746 13.8573L5.40746 33.0644C5.40746 35.688 7.01849 37.263 9.72156 37.263Z" fill="#2990ff" fill-opacity="0.85"/>
    </g>
</svg>
