<?xml version="1.0" encoding="UTF-8"?>
<!--Generator: Apple Native CoreSVG 341-->
<!DOCTYPE svg
PUBLIC "-//W3C//DTD SVG 1.1//EN"
       "http://www.w3.org/Graphics/SVG/1.1/DTD/svg11.dtd">
<svg version="1.1" xmlns="http://www.w3.org/2000/svg" xmlns:xlink="http://www.w3.org/1999/xlink" viewBox="0 0 36.2527 35.9051">
 <g>
  <rect height="35.9051" opacity="0" width="36.2527" x="0" y="0"/>
  <path d="M17.9415 35.8831C27.856 35.8831 35.9011 27.856 35.9011 17.9415C35.9011 8.02705 27.856 0 17.9415 0C8.04506 0 0 8.02705 0 17.9415C0 27.856 8.04506 35.8831 17.9415 35.8831ZM17.9415 31.9975C10.1733 31.9975 3.90364 25.7098 3.90364 17.9415C3.90364 10.1733 10.1733 3.88562 17.9415 3.88562C25.7098 3.88562 31.9975 10.1733 31.9975 17.9415C31.9975 25.7098 25.7098 31.9975 17.9415 31.9975ZM29.4447 29.3673L29.3709 29.0487C28.3109 26.4898 23.9678 23.9313 17.9415 23.9313C11.9153 23.9313 7.5902 26.4898 6.53025 29.0487L6.45642 29.3673C9.74089 32.3345 14.8671 33.9161 17.9415 33.9161C21.034 33.9161 26.1602 32.3345 29.4447 29.3673ZM17.9415 21.1258C21.2792 21.1618 23.8939 18.3076 23.8939 14.6061C23.8939 11.1203 21.2713 8.2182 17.9415 8.2182C14.6298 8.2182 11.9852 11.1203 12.0072 14.6061C12.0252 18.3076 14.6039 21.0898 17.9415 21.1258Z" fill="white" fill-opacity="0.85"/>
 </g>
</svg>
