<?xml version="1.0" encoding="UTF-8"?>
<!--Generator: Apple Native CoreSVG 341-->
<!DOCTYPE svg
PUBLIC "-//W3C//DTD SVG 1.1//EN"
"http://www.w3.org/Graphics/SVG/1.1/DTD/svg11.dtd">
<svg version="1.1" xmlns="http://www.w3.org/2000/svg" xmlns:xlink="http://www.w3.org/1999/xlink" viewBox="0 0 38.0773 37.6936">
    <g>
        <rect height="37.6936" opacity="0" width="38.0773" x="0" y="0"/>
        <path d="M17.1101 37.6717L20.5976 37.6717C22.0948 37.6717 23.2985 36.7435 23.6259 35.3382L24.3114 32.3521L24.6357 32.244L27.214 33.8409C28.4757 34.5915 29.9628 34.414 31.0148 33.3439L33.4397 30.941C34.5036 29.881 34.6794 28.372 33.9108 27.1542L32.2958 24.5659L32.4039 24.2956L35.3821 23.6061C36.7875 23.2747 37.7257 22.0531 37.7257 20.5778L37.7257 17.2019C37.7257 15.7267 36.8055 14.523 35.3821 14.1737L32.44 13.4481L32.3138 13.1599L33.9288 10.5715C34.6974 9.33573 34.5397 7.84467 33.4577 6.7667L31.0328 4.36377C29.9988 3.31172 28.5117 3.11221 27.25 3.86675L24.6537 5.44571L24.3114 5.31958L23.6259 2.33349C23.2985 0.928122 22.0948 0 20.5976 0L17.1101 0C15.6129 0 14.4272 0.932077 14.0999 2.33349L13.4143 5.31958L13.0539 5.44571L10.4577 3.86675C9.214 3.11616 7.7269 3.31172 6.67485 4.36377L4.26797 6.7667C3.18604 7.84467 3.02827 9.33573 3.79687 10.5715L5.39385 13.1599L5.26773 13.4481L2.32558 14.1737C0.916257 14.527 0 15.7267 0 17.2019L0 20.5778C0 22.0531 0.93823 23.2747 2.32558 23.6061L5.30376 24.2956L5.41187 24.5659L3.81489 27.1542C3.04629 28.372 3.22207 29.881 4.28598 30.941L6.69287 33.3439C7.74492 34.414 9.25004 34.5915 10.4937 33.8409L13.09 32.244L13.4143 32.3521L14.0999 35.3382C14.4272 36.7435 15.6129 37.6717 17.1101 37.6717ZM17.5759 34.218C17.3443 34.218 17.2345 34.1183 17.2085 33.9165L16.1556 29.6495C15.0034 29.3796 13.9293 28.9345 13.0614 28.3438L9.2997 30.6672C9.13798 30.763 8.95824 30.763 8.8185 30.6053L7.04266 28.8154C6.88094 28.6717 6.88885 28.51 6.99871 28.3342L9.29398 24.5865C8.7974 23.7366 8.30609 22.6745 8.03626 21.5262L3.75116 20.4913C3.54945 20.4653 3.44969 20.3555 3.44969 20.1239L3.44969 17.6199C3.44969 17.3702 3.53143 17.2964 3.75116 17.2345L8.01825 16.2176C8.29598 15.0012 8.8475 13.8951 9.25794 13.1212L6.98069 9.39154C6.85281 9.19774 6.8449 9.03602 7.00662 8.87431L8.80048 7.12044C8.95824 6.98069 9.08392 6.96268 9.2997 7.05848L13.0254 9.32781C13.83 8.81893 15.0157 8.32191 16.1697 8.0222L17.2085 3.75511C17.2345 3.5534 17.3443 3.45365 17.5759 3.45365L20.1498 3.45365C20.3814 3.45365 20.4913 3.5534 20.5172 3.75511L21.5561 8.05824C22.7382 8.33597 23.7942 8.81717 24.6643 9.34583L28.4181 7.06639C28.6159 6.97059 28.7376 6.98465 28.9173 7.12835L30.7112 8.88222C30.8549 9.04393 30.865 9.20565 30.7371 9.39945L28.4498 13.1212C28.8743 13.8911 29.4117 15.0012 29.6855 16.2136L33.9746 17.2345C34.1943 17.2964 34.258 17.3702 34.258 17.6199L34.258 20.1239C34.258 20.3555 34.1763 20.4653 33.9746 20.4913L29.6675 21.5301C29.4157 22.6705 28.9244 23.7485 28.4137 24.5865L30.7191 28.3263C30.829 28.502 30.8369 28.6638 30.6751 28.8075L28.8993 30.5974C28.7376 30.7591 28.5618 30.7551 28.4181 30.6593L24.6502 28.3438C23.7885 28.9345 22.7439 29.3678 21.5561 29.6495L20.5172 33.9165C20.4913 34.1183 20.3814 34.218 20.1498 34.218ZM18.8499 25.352C22.4556 25.352 25.3661 22.4415 25.3661 18.8358C25.3661 15.2301 22.4556 12.3196 18.8499 12.3196C15.2442 12.3196 12.3337 15.2301 12.3337 18.8358C12.3337 22.4415 15.2442 25.352 18.8499 25.352ZM18.8499 22.0825C17.0626 22.0825 15.6212 20.6231 15.6212 18.8358C15.6212 17.0486 17.0626 15.5891 18.8499 15.5891C20.6372 15.5891 22.0966 17.0486 22.0966 18.8358C22.0966 20.6231 20.6372 22.0825 18.8499 22.0825Z" fill="#2990ff" fill-opacity="0.85"/>
    </g>
</svg>
